<svg width="26" height="18" viewBox="0 0 26 18" fill="none" xmlns="http://www.w3.org/2000/svg">
<path d="M3.61886 1.08895e-08C2.89192 1.08895e-08 2.04443 0.197483 1.35159 0.617431C0.645354 1.04333 0 1.77616 0 2.82543V14.4246C0 15.4738 0.645354 16.2055 1.35159 16.6326C2.04565 17.0525 2.89192 17.25 3.61886 17.25H16.1582C17.0317 17.2501 17.8707 16.9167 18.4961 16.3209L25.0105 10.1156C25.2141 9.92168 25.376 9.68987 25.4864 9.43386C25.5969 9.17786 25.6538 8.90283 25.6538 8.625C25.6538 8.34717 25.5969 8.07214 25.4864 7.81614C25.376 7.56013 25.2141 7.32832 25.0105 7.13436L18.4961 0.929121C17.8707 0.333347 17.0317 -6.95732e-05 16.1582 1.08895e-08H3.61886Z" fill="#FF593C"/>
</svg>
